<svg width="96" height="96" xmlns="http://www.w3.org/2000/svg" xmlns:xlink="http://www.w3.org/1999/xlink" xml:space="preserve" overflow="hidden"><defs><clipPath id="clip0"><rect x="758" y="312" width="96" height="96"/></clipPath></defs><g clip-path="url(#clip0)" transform="translate(-758 -312)"><path d="M796 380 816 380 816 394 796 394Z"/><path d="M796 326 816 326 816 340 796 340Z"/><path d="M766 380 786 380 786 394 766 394Z"/><path d="M826 380 846 380 846 394 826 394Z"/><path d="M808 358 808 344 804 344 804 358 774 358 774 376 778 376 778 362 804 362 804 376 808 376 808 362 834 362 834 376 838 376 838 358Z"/></g></svg>