<svg width="96" height="96" xmlns="http://www.w3.org/2000/svg" xmlns:xlink="http://www.w3.org/1999/xlink" xml:space="preserve" overflow="hidden"><defs><clipPath id="clip0"><rect x="155" y="101" width="96" height="96"/></clipPath></defs><g clip-path="url(#clip0)" transform="translate(-155 -101)"><path d="M245.334 166.43 239.927 164.512 239.927 155.489 244.274 153.65C244.783 153.435 245.021 152.849 244.807 152.34 244.673 152.024 244.387 151.798 244.048 151.742L236.911 150.563 236.911 141.72 245.375 138.3C245.887 138.093 246.135 137.51 245.928 136.998 245.82 136.732 245.604 136.526 245.334 136.43L239.927 134.512 239.927 125.489 244.274 123.65C244.783 123.435 245.021 122.848 244.805 122.339 244.698 122.085 244.49 121.887 244.231 121.791L210.671 109.4C210.455 109.32 210.218 109.317 210 109.392L164.7 125.19C164.605 125.222 164.516 125.269 164.436 125.328 164.307 125.428 161.27 127.738 161.27 134.835 161.258 136.452 161.443 138.064 161.822 139.635 160.643 140.635 158.27 143.335 158.27 148.835 158.25 152.793 159.517 156.65 161.881 159.825 161.455 161.46 161.25 163.145 161.27 164.835 161.27 171.873 164.364 174.735 164.496 174.852 164.584 174.932 164.686 174.995 164.796 175.039L196.796 187.631C196.913 187.677 197.037 187.7 197.162 187.7 197.291 187.7 197.418 187.675 197.537 187.627L245.375 168.3C245.887 168.093 246.135 167.51 245.928 166.998 245.82 166.732 245.604 166.526 245.334 166.43ZM234.911 150.73 197.121 165.788 165.465 153.326 165.465 145.315 196.8 157.631C197.038 157.726 197.303 157.726 197.541 157.631L234.909 142.531ZM197.163 185.623 165.733 173.257C165.245 172.713 163.272 170.182 163.272 164.835 163.243 163.165 163.47 161.501 163.945 159.9 164.053 159.56 163.972 159.188 163.732 158.924 161.46 156.053 160.239 152.492 160.272 148.831 160.272 142.886 163.345 140.961 163.472 140.886 163.872 140.654 164.061 140.178 163.929 139.735 163.476 138.142 163.256 136.491 163.275 134.835 163.275 129.518 165.126 127.421 165.544 127.015L210.314 111.4 241.144 122.784C241.158 122.784 241.158 122.798 241.144 122.803L197.163 140.623 167.831 129.077C167.317 128.875 166.736 129.128 166.534 129.642 166.488 129.758 166.465 129.883 166.465 130.008L166.465 140.008C166.465 140.419 166.716 140.787 167.098 140.938L196.8 152.631C197.038 152.726 197.303 152.726 197.541 152.631L238.466 136.091 242.156 137.424C242.169 137.429 242.169 137.437 242.156 137.443L197.163 155.623 164.831 142.917C164.317 142.715 163.737 142.968 163.534 143.482 163.488 143.598 163.465 143.723 163.465 143.848L163.465 154.008C163.465 154.419 163.716 154.787 164.098 154.938L196.757 167.794C196.993 167.888 197.257 167.888 197.493 167.794L236.022 152.444 240.28 153.144C240.299 153.144 240.3 153.156 240.28 153.163L197.163 170.623 167.831 159.077C167.317 158.875 166.736 159.128 166.534 159.642 166.488 159.758 166.465 159.883 166.465 160.008L166.465 170.008C166.465 170.419 166.716 170.787 167.098 170.938L196.8 182.631C197.038 182.726 197.303 182.726 197.541 182.631L238.466 166.091 242.156 167.424C242.169 167.424 242.169 167.437 242.156 167.443ZM237.927 134.152 197.163 150.623 168.463 139.323 168.463 131.473 196.8 142.631C197.038 142.726 197.303 142.726 197.541 142.631L237.927 126.309ZM237.927 164.152 197.163 180.623 168.463 169.323 168.463 161.473 196.8 172.631C197.038 172.726 197.303 172.726 197.541 172.631L237.927 156.309Z"/></g></svg>