<svg width="96" height="96" xmlns="http://www.w3.org/2000/svg" xmlns:xlink="http://www.w3.org/1999/xlink" xml:space="preserve" overflow="hidden"><defs><clipPath id="clip0"><rect x="492" y="110" width="96" height="96"/></clipPath></defs><g clip-path="url(#clip0)" transform="translate(-492 -110)"><path d="M519 129 519 137 511 137 511 129 519 129ZM525 123 505 123 505 143 525 143 525 123Z"/><path d="M519 179 519 187 511 187 511 179 519 179ZM525 173 505 173 505 193 525 193 525 173Z"/><path d="M569 129 569 137 561 137 561 129 569 129ZM575 123 555 123 555 143 575 143 575 123Z"/><path d="M537 155 517 155 517 149 531 149 531 123 549 123 549 129 537 129Z"/><path d="M543 135 549 135 549 143 543 143Z"/><path d="M542 179 531 179 531 161 543 161 543 149 561 149 561 161 575 161 575 167 555 167 555 155 549 155 549 167 537 167 537 173 542 173Z"/><path d="M525 167 505 167 505 149 511 149 511 161 525 161Z"/><path d="M555 193 531 193 531 187 549 187 549 173 555 173Z"/><path d="M567 149 575 149 575 155 567 155Z"/><path d="M575 193 561 193 561 173 575 173 575 179 567 179 567 187 575 187Z"/></g></svg>