<svg width="96" height="96" xmlns="http://www.w3.org/2000/svg" xmlns:xlink="http://www.w3.org/1999/xlink" xml:space="preserve" overflow="hidden"><defs><clipPath id="clip0"><rect x="662" y="185" width="96" height="96"/></clipPath></defs><g clip-path="url(#clip0)" transform="translate(-662 -185)"><path d="M710 195C689 195 672 212 672 233 672 254 689 271 710 271 731 271 748 254 748 233 748 212 731 195 710 195ZM710 267C691.3 267 676 251.7 676 233 676 214.3 691.3 199 710 199 714.9 199 719.5 200 723.7 201.9L720.5 204.5C720.1 204.8 719.7 205 719.2 205L717.3 205C717.1 205 716.8 205 716.6 204.9 716.6 204.9 711.7 202 708.9 202 706.2 202 701.8 203.7 699.9 205 697 206.9 700.1 207.8 700.8 208 700.9 208 701 208 701 208L703.8 208C704.5 208 705.1 207.7 705.5 207.1L706.6 205.4C706.8 205.1 707.1 205 707.4 205L709 205 706.9 208.5C706.4 209.4 705.4 210 704.3 210L701.6 210C701.2 210 700.8 210.1 700.5 210.3L698 212 696 212C695.4 212 695 212.4 695 213L695 214C695 214.6 694.6 215 694 215L693.1 215C692.4 215 691.8 215.3 691.4 215.9L690.2 217.8C690.1 218 690 218.2 690 218.4L690 219C690 219.6 690.4 220 691 220L694.6 220C694.9 220 695.1 219.9 695.3 219.7L698.4 216.6C698.8 216.2 699.3 216 699.8 216L700.2 216C700.7 216 701.1 216.3 701.2 216.8L701.8 219.3C701.9 219.7 702.3 220.1 702.8 220.1L703 220.1C703.6 220.1 704 219.7 704 219.1L704 216.5C704 216.2 704.1 216 704.3 215.8L705 215 705.8 217.3C705.9 217.7 706.3 218 706.7 218L707.6 218C707.9 218 708.1 217.9 708.3 217.7L708.7 217.3C708.9 217.1 709.1 217 709.4 217L710 217C710.6 217 711 217.4 711 218L711 219C711 219.6 711.4 220 712 220L715.6 220C716.3 220 716.8 220.7 716.5 221.3L716.2 222.2C716 222.7 715.6 223 715.1 222.9L710.3 222.1C710.1 222.1 709.8 222.1 709.6 222.1L705.5 222.9C705.1 223 704.8 222.9 704.4 222.8 703.1 222.3 699.5 221 698 221 686.1 221 686 229 686 232 686 236 688.3 239 692 239 696.4 239 702 238.8 702 247L702 253.2C702 254.4 702.4 255.5 703.2 256.4L706.1 259.9C706.7 260.6 707.5 261 708.4 261L710.8 261C711.6 261 712.4 260.7 712.9 260.1L715.3 257.7C715.8 257.2 716.1 256.7 716.4 256.1L718.4 252C718.7 251.3 718.9 250.5 718.9 249.8L718.9 245.2C718.9 244.4 719.2 243.6 719.8 243.1L725.1 237.8C725.5 237.4 725.5 236.6 725 236.3 725 236.3 719 232.9 715.7 226.5 715.4 225.8 715.8 225 716.6 225L717 225 722.7 232.4C723.4 233.3 724.7 233.4 725.6 232.7L728.9 229.9C729.4 229.5 729.4 228.6 728.8 228.3L725.8 226.5C725.4 226.2 725.2 225.7 725.4 225.2L725.5 225C725.8 224.5 726.4 224.3 726.9 224.6L730.5 226.8C730.8 227 731.2 227.1 731.5 227.1L732.6 227.1C733.4 227.1 734.1 227.6 734.4 228.3L737.3 234.9C737.6 235.6 738.3 236.1 739.1 236.1L739.1 236.1C740 236.1 740.8 235.3 740.8 234.4L740.8 231.6C740.8 231.3 740.9 231 741.2 230.8L743.5 229C743.7 230.3 743.8 231.7 743.8 233.1 744 251.7 728.7 267 710 267Z"/><path d="M692 212 692 213 693 213C693.6 213 694 212.6 694 212L694 211 695 211 695 209.4C695 209.1 694.9 208.9 694.7 208.7L693.7 207.7C693.3 207.3 692.7 207.3 692.3 207.7L690.7 209.3C690.3 209.7 690.3 210.3 690.7 210.7L692 212Z"/></g></svg>