<svg width="96" height="96" xmlns="http://www.w3.org/2000/svg" xmlns:xlink="http://www.w3.org/1999/xlink" xml:space="preserve" overflow="hidden"><defs><clipPath id="clip0"><rect x="408" y="397" width="96" height="96"/></clipPath></defs><g clip-path="url(#clip0)" transform="translate(-408 -397)"><path d="M467.3 434.3C463.1 434.3 459.8 430.9 459.8 426.8 459.8 422.7 463.2 419.3 467.3 419.3 471.5 419.3 474.8 422.7 474.8 426.8 474.8 430.9 471.4 434.3 467.3 434.3ZM484.2 422.1C483.8 420.7 483.3 419.4 482.6 418.2L484.2 413.5 480.6 409.9 475.9 411.5C474.7 410.8 473.4 410.3 472 409.9L469.8 405.5 464.8 405.5 462.6 409.9C461.2 410.3 459.9 410.8 458.7 411.5L454 409.9 450.4 413.5 452 418.2C451.3 419.4 450.8 420.7 450.4 422.1L446 424.3 446 429.3 450.4 431.5C450.8 432.9 451.3 434.2 452 435.4L450.4 440.1 453.9 443.6 458.6 442C459.8 442.7 461.1 443.2 462.5 443.6L464.7 448 469.7 448 471.9 443.6C473.3 443.2 474.6 442.7 475.8 442L480.5 443.6 484.1 440.1 482.5 435.4C483.2 434.2 483.8 432.8 484.2 431.5L488.6 429.3 488.6 424.3 484.2 422.1Z"/><path d="M444.7 470.7C440.5 470.7 437.2 467.3 437.2 463.2 437.2 459 440.6 455.7 444.7 455.7 448.9 455.7 452.2 459.1 452.2 463.2 452.2 467.3 448.9 470.7 444.7 470.7L444.7 470.7ZM460 454.6 461.6 449.9 458 446.3 453.3 447.9C452.1 447.2 450.7 446.7 449.4 446.3L447.2 441.9 442.2 441.9 440 446.3C438.6 446.7 437.3 447.2 436.1 447.9L431.4 446.3 427.9 449.8 429.4 454.5C428.7 455.7 428.2 457.1 427.8 458.4L423.4 460.6 423.4 465.6 427.8 467.8C428.2 469.2 428.7 470.5 429.4 471.7L427.9 476.4 431.4 479.9 436.1 478.4C437.3 479.1 438.6 479.6 440 480L442.2 484.4 447.2 484.4 449.4 480C450.8 479.6 452.1 479.1 453.3 478.4L458 480 461.5 476.4 460 471.8C460.7 470.6 461.2 469.3 461.6 467.9L466 465.7 466 460.7 461.6 458.5C461.2 457.1 460.7 455.8 460 454.6Z"/></g></svg>